<?xml version="1.0" encoding="UTF-8" standalone="no"?>
<svg xmlns:dc="http://purl.org/dc/elements/1.1/" xmlns:cc="http://creativecommons.org/ns#" xmlns:rdf="http://www.w3.org/1999/02/22-rdf-syntax-ns#" xmlns:svg="http://www.w3.org/2000/svg" xmlns="http://www.w3.org/2000/svg" xmlns:xlink="http://www.w3.org/1999/xlink" xmlns:sodipodi="http://sodipodi.sourceforge.net/DTD/sodipodi-0.dtd" xmlns:inkscape="http://www.inkscape.org/namespaces/inkscape" version="1.1" id="science" x="0px" y="0px" viewBox="0 0 128 128" enable-background="new 0 0 128 128" xml:space="preserve" sodipodi:docname="logo.svg" inkscape:version="0.92.2 2405546, 2018-03-11">
  <g inkscape:groupmode="layer" id="layer4" inkscape:label="Background Large" style="display:none">
    <circle cx="64" cy="64" r="63.369904" id="circle2" style="display:inline;opacity:1;fill:#0d1d3e;fill-opacity:1;stroke:none;stroke-width:0.99000001" />
  </g>
  <g style="display:inline" inkscape:label="Background" id="g4784" inkscape:groupmode="layer">
    <circle style="display:inline;opacity:1;fill:#0d1d3e;fill-opacity:1;stroke:none;stroke-width:0.99000001" id="circle4782" cy="64" cx="64" r="63.169998" />
  </g>
  <g inkscape:groupmode="layer" id="layer2" inkscape:label="Body" style="display:inline">
    <path id="path4811" style="display:inline;opacity:1;fill:#ffffff;fill-opacity:1;fill-rule:evenodd;stroke:none;stroke-width:1.28460455px;stroke-linecap:butt;stroke-linejoin:miter;stroke-opacity:1" d="m 76.817533,24.978702 -12.81753,-8.405604 -12.81753,8.405604 0.808583,2.503002 V 45.390309 L 40.042003,103.24887 h 47.916 L 76.008951,45.390309 V 27.481704 Z" inkscape:connector-curvature="0" sodipodi:nodetypes="cccccccccc" />
  </g>
  <g inkscape:groupmode="layer" id="layer10" inkscape:label="Body Shadow" style="display:inline">
    <path id="path4811-2" style="display:inline;opacity:1;fill:#e2e2e0;fill-opacity:1;fill-rule:evenodd;stroke:none;stroke-width:1.28460455px;stroke-linecap:butt;stroke-linejoin:miter;stroke-opacity:1" d="m 76.817533,24.978702 -12.81753,-8.405604 4.272507,8.405234 -0.26983,2.50349 v 17.908 L 71.986,103.24839 87.958003,103.24887 76.008951,45.390309 V 27.481822 Z" inkscape:connector-curvature="0" sodipodi:nodetypes="cccccccccc" />
  </g>
  <g inkscape:groupmode="layer" id="layer7" inkscape:label="Tint" style="display:none">
    <path id="path4811-1-5" style="display:inline;opacity:1;fill:#d8d7d6;fill-opacity:1;fill-rule:evenodd;stroke:none;stroke-width:1.06165671px;stroke-linecap:butt;stroke-linejoin:miter;stroke-opacity:1" d="m 54.075253,37.995903 v 14.8005 h 19.849499 v -14.8005" inkscape:connector-curvature="0" sodipodi:nodetypes="cccc" />
  </g>
  <g inkscape:groupmode="layer" id="layer12" inkscape:label="Tint Shadow" style="display:none">
    <path id="path4811-1-5-2" style="display:inline;opacity:1;fill:#b3b2b0;fill-opacity:1;fill-rule:evenodd;stroke:none;stroke-width:1.06165671px;stroke-linecap:butt;stroke-linejoin:miter;stroke-opacity:1" d="m 67.308,37.996 v 14.8 l 6.616753,4.03e-4 v -14.8005" inkscape:connector-curvature="0" sodipodi:nodetypes="cccc" />
  </g>
  <g inkscape:groupmode="layer" id="layer5" inkscape:label="Beam" style="display:inline;opacity:1" />
  <g inkscape:groupmode="layer" id="layer3" inkscape:label="Trim" style="display:inline;opacity:1">
    <rect style="fill:#f16622;fill-opacity:1;stroke:none;stroke-width:42.58089447;stroke-linecap:square;stroke-linejoin:miter;stroke-miterlimit:4;stroke-dasharray:none;stroke-opacity:0.4" id="rect4813" width="56.183907" height="6.1991324" x="35.7397" y="102.95405" rx="1.2" ry="1.2" />
    <rect style="fill:#f16622;fill-opacity:1;stroke:none;stroke-width:29.74027061;stroke-linecap:square;stroke-linejoin:miter;stroke-miterlimit:4;stroke-dasharray:none;stroke-opacity:0.4" id="rect4813-0" width="32.103722" height="4.54603" x="47.948143" y="43.137203" rx="0.85000002" ry="0.85000002" />
    <rect style="display:inline;opacity:1;fill:#f16622;fill-opacity:1;stroke:none;stroke-width:29.96796989;stroke-linecap:square;stroke-linejoin:miter;stroke-miterlimit:4;stroke-dasharray:none;stroke-opacity:0.4" id="rect4813-0-5" width="32.103722" height="4.54597" x="47.948143" y="24.762768" rx="0.85000002" ry="0.85000002" />
  </g>
  <g inkscape:groupmode="layer" id="layer11" inkscape:label="Trim Shadow" style="display:inline">
    <path style="display:inline;opacity:1;fill:#c5490d;fill-opacity:1;stroke:none;stroke-width:42.58089447;stroke-linecap:square;stroke-linejoin:miter;stroke-miterlimit:4;stroke-dasharray:none;stroke-opacity:0.4" d="m 72.79186,102.95436 17.921752,-3e-4 c 0.67034,-1e-5 1.21,0.53966 1.21,1.21 v 3.77913 c 0,0.67034 -0.53966,1.21 -1.21,1.21 H 72.79186 c 0.384543,0 0.40293,-0.53966 0.40293,-1.21 v -3.77883 c 0,-0.67034 -0.0068,-1.21001 -0.40293,-1.21 z" id="rect4813-6" inkscape:connector-curvature="0" sodipodi:nodetypes="csssssssc" />
    <path style="display:inline;opacity:1;fill:#c5490d;fill-opacity:1;stroke:none;stroke-width:29.74027061;stroke-linecap:square;stroke-linejoin:miter;stroke-miterlimit:4;stroke-dasharray:none;stroke-opacity:0.4" d="m 69.06869,43.136802 10.136171,3.3e-4 c 0.469238,1.6e-5 0.847,0.377762 0.847,0.847 v 2.852031 c 0,0.469238 -0.377762,0.847018 -0.847,0.847 L 69.06869,47.682772 c 0.265697,1e-5 0.28193,-0.377762 0.28193,-0.847 v -2.85197 c 0,-0.469238 -0.01162,-0.846992 -0.28193,-0.847 z" id="rect4813-0-2" inkscape:connector-curvature="0" sodipodi:nodetypes="sssssssss" />
    <path style="display:inline;opacity:1;fill:#c5490d;fill-opacity:1;stroke:none;stroke-width:29.74027061;stroke-linecap:square;stroke-linejoin:miter;stroke-miterlimit:4;stroke-dasharray:none;stroke-opacity:0.4" d="m 69.06869,24.762561 10.136171,3.31e-4 c 0.469238,1.5e-5 0.847,0.377762 0.847,0.847 v 2.85203 c 0,0.469238 -0.377762,0.847018 -0.847,0.847 L 69.06869,29.308531 c 0.265697,9e-6 0.28193,-0.377762 0.28193,-0.847 v -2.85197 c 0,-0.469238 -0.01162,-0.846992 -0.28193,-0.847 z" id="rect4813-0-2-0" inkscape:connector-curvature="0" sodipodi:nodetypes="sssssssss" />
  </g>
  <g inkscape:groupmode="layer" id="layer9" inkscape:label="Beam">
    <path inkscape:connector-curvature="0" style="display:inline;opacity:1;fill:#ffc30c;fill-opacity:1;stroke:none;stroke-width:0.2;stroke-opacity:1;stroke-miterlimit:4;stroke-dasharray:none" d="M 107.96608,18.459502 76.007084,31.369659 v 9.703125 L 127.2903,61.791534 A 63.369904,63.369904 0 0 0 107.96608,18.459502 Z" id="circle2-97-4" />
    <path inkscape:connector-curvature="0" style="display:inline;opacity:1;fill:#ffc30c;fill-opacity:1;stroke:none;stroke-width:0.2;stroke-miterlimit:4;stroke-dasharray:none;stroke-opacity:1" d="m 20.033926,18.458993 31.958996,12.910158 v 9.703125 L 0.7097059,61.791026 A 63.369904,63.369904 0 0 1 20.033926,18.458993 Z" id="circle2-97-4-3" />
    <path style="display:inline;opacity:1;fill:#ffe8a1;fill-opacity:1;stroke:none;stroke-width:0.2;stroke-miterlimit:4;stroke-dasharray:none;stroke-opacity:1" d="M 20.033926,18.458993 C 10.282475,27.869528 3.8714415,40.103093 1.5983795,53.314462 L 64.002676,36.220712 c 0,0 -29.312488,-11.841174 -43.96875,-17.761719 z" id="circle2-97-4-3-0" inkscape:connector-curvature="0" />
    <path style="display:inline;opacity:1;fill:#ffe8a1;fill-opacity:1;stroke:none;stroke-width:0.2;stroke-miterlimit:4;stroke-dasharray:none;stroke-opacity:1" d="m 107.96608,18.459502 c 9.75145,9.410535 16.16249,21.6441 18.43555,34.855469 L 63.997331,36.221221 c 0,0 29.312487,-11.841174 43.968749,-17.761719 z" id="circle2-97-4-3-0-0" inkscape:connector-curvature="0" />
    <path inkscape:connector-curvature="0" style="display:inline;opacity:1;fill:#fff8e1;fill-opacity:1;stroke:none;stroke-width:0.2;stroke-miterlimit:4;stroke-dasharray:none;stroke-opacity:1" d="M 20.033926,18.458993 C 13.678069,24.592645 8.752636,31.929876 5.455801,39.951181 l 58.546875,-3.730469 c 0,0 -29.312488,-11.841174 -43.96875,-17.761719 z" id="circle2-97-4-3-0-5-0" />
    <path inkscape:connector-curvature="0" style="display:inline;opacity:1;fill:#fff8e1;fill-opacity:1;stroke:none;stroke-width:0.2;stroke-miterlimit:4;stroke-dasharray:none;stroke-opacity:1" d="m 107.96608,18.459502 c 6.35586,6.133652 11.28129,13.470883 14.57813,21.492188 L 63.997329,36.221221 c 0,0 29.312488,-11.841174 43.968751,-17.761719 z" id="circle2-97-4-3-0-5-0-5" />
    <path inkscape:connector-curvature="0" style="display:inline;opacity:1;fill:#ffe8a1;fill-opacity:1;fill-rule:evenodd;stroke:none;stroke-width:0.2;stroke-linecap:butt;stroke-linejoin:miter;stroke-miterlimit:4;stroke-dasharray:none;stroke-opacity:1" d="M 76.009769,31.370918 64.000003,36.22248 76.009769,41.074043 Z" id="path4811-5" />
    <path inkscape:connector-curvature="0" style="display:inline;opacity:1;fill:#ffe8a1;fill-opacity:1;fill-rule:evenodd;stroke:none;stroke-width:0.2;stroke-linecap:butt;stroke-linejoin:miter;stroke-miterlimit:4;stroke-dasharray:none;stroke-opacity:1" d="m 51.992922,31.369151 12.009766,4.851562 -12.009766,4.851563 z" id="path4811-5-6" />
    <path style="display:inline;opacity:1;fill:#fff8e1;fill-opacity:1;stroke:none;stroke-width:0.2;stroke-miterlimit:4;stroke-dasharray:none;stroke-opacity:1" d="m 51.989516,31.369659 v 8.140625 l 12.007813,-3.289063 c 0,0 -8.530816,-3.446984 -12.007813,-4.851562 z" id="circle2-97-4-3-0-06" inkscape:connector-curvature="0" />
    <path style="display:inline;opacity:1;fill:#fffdeb;fill-opacity:1;stroke:none;stroke-width:0.2;stroke-miterlimit:4;stroke-dasharray:none;stroke-opacity:1" d="m 51.989516,31.369659 v 5.617187 l 12.009765,-0.765625 c 0,0 -8.531921,-3.446641 -12.009765,-4.851562 z" id="circle2-97-4-3-0-5-0-6" inkscape:connector-curvature="0" />
    <path style="display:inline;opacity:1;fill:#fff8e1;fill-opacity:1;stroke:none;stroke-width:0.2;stroke-miterlimit:4;stroke-dasharray:none;stroke-opacity:1" d="m 76.009769,31.370918 v 8.140625 L 64.001956,36.22248 c 0,0 8.530816,-3.446984 12.007813,-4.851562 z" id="circle2-97-4-3-0-06-5" inkscape:connector-curvature="0" />
    <path style="display:inline;opacity:1;fill:#fffdeb;fill-opacity:1;stroke:none;stroke-width:0.2;stroke-miterlimit:4;stroke-dasharray:none;stroke-opacity:1" d="m 76.007084,31.369659 v 5.617187 L 63.997319,36.221221 c 0,0 8.531921,-3.446641 12.009765,-4.851562 z" id="circle2-97-4-3-0-5-0-6-8" inkscape:connector-curvature="0" />
  </g>
</svg>